<svg xmlns="http://www.w3.org/2000/svg" id="Layer_2" viewBox="0 0 774.73 739.13"><defs><style>.cls-1{fill:#dfdbe3}.cls-2{fill:#4b4946}.cls-3{fill:#3464ad}</style></defs><polygon points="309.96 739.13 0 739.13 126.13 368.4 241.02 289.51 205.79 261.94 205.02 182.28 241.79 182.28 305.36 124.06 454.95 124.06 493.02 181.51 520.6 181.51 556.6 181.51 556.6 263.7 522.13 291.04 574.21 329.34 633.19 369.17 774.73 739.13 454.95 739.13 454.72 528.49 310.72 527.72 309.96 739.13" class="cls-1"/><g><rect width="68.17" height="372.26" x="123.36" y="364.87" class="cls-2"/><rect width="69.94" height="371.49" x="222.94" y="365.64" class="cls-2"/><rect width="66.64" height="371.49" x="469.04" y="365.64" class="cls-2"/><rect width="66.87" height="372.26" x="565.62" y="364.87" class="cls-2"/><polygon points="519.36 326.28 519.36 140.91 457.32 140.91 457.32 326.28 302.6 326.28 302.6 140.91 239.79 140.91 239.79 326.28 111.11 326.28 111.11 346.96 648.81 346.96 648.81 326.28 519.36 326.28" class="cls-2"/><path d="M344.13,461.85c0,16.08,13.03,29.11,29.11,29.11h16.85c16.08,0,29.11-13.03,29.11-29.11v-72h-75.06v72Z" class="cls-2"/></g><g id="Layer_3"><polygon points="620.38 230.94 592.47 281.66 647.62 281.32 620.38 230.94" class="cls-3"/><polygon points="609.15 312.98 630.25 311.96 647.62 326.26 592.47 326.26 609.15 312.98" class="cls-3"/><polygon points="592.47 281.66 647.62 281.32 630.25 311.96 609.15 312.98 592.47 281.66" class="cls-2"/><polygon points="268.64 45.6 240.72 96.32 295.87 95.98 268.64 45.6" class="cls-3"/><polygon points="257.4 127.64 278.51 126.62 295.87 140.91 240.72 140.91 257.4 127.64" class="cls-3"/><polygon points="240.72 96.32 295.87 95.98 278.51 126.62 257.4 127.64 240.72 96.32" class="cls-2"/><polygon points="493.13 45.6 465.21 96.32 520.36 95.98 493.13 45.6" class="cls-3"/><polygon points="481.89 127.64 503 126.62 520.36 140.91 465.21 140.91 481.89 127.64" class="cls-3"/><polygon points="465.21 96.32 520.36 95.98 503 126.62 481.89 127.64 465.21 96.32" class="cls-2"/><polygon points="139.02 230.94 111.11 281.66 166.25 281.32 139.02 230.94" class="cls-3"/><polygon points="127.79 312.98 148.89 311.96 166.25 326.26 111.11 326.26 127.79 312.98" class="cls-3"/><polygon points="111.11 281.66 166.25 281.32 148.89 311.96 127.79 312.98 111.11 281.66" class="cls-2"/><polygon points="381.47 0 353.55 50.72 408.7 50.38 381.47 0" class="cls-3"/><polygon points="365.23 84.04 386.34 83.02 403.7 97.32 348.55 97.32 365.23 84.04" class="cls-3"/><polygon points="353.55 49.72 408.7 49.38 391.34 80.02 370.23 81.04 353.55 49.72" class="cls-2"/><g><polygon points="392.68 75.57 362.04 75.57 272.43 140.68 509.87 141.45 392.68 75.57" class="cls-3"/><rect width="122.55" height="144" x="317.45" y="160.43" class="cls-3"/><rect width="62.81" height="143.23" x="239.55" y="164.43" class="cls-3"/><rect width="61.04" height="144" x="458.32" y="164.43" class="cls-3"/><rect width="537.7" height="20.68" x="111.57" y="345.19" class="cls-3"/><rect width="68.94" height="275.74" x="122.6" y="413.36" class="cls-3"/><rect width="69.7" height="276.51" x="223.17" y="413.36" class="cls-3"/><rect width="66.64" height="278.81" x="469.04" y="411.06" class="cls-3"/><rect width="67.4" height="278.81" x="565.08" y="411.06" class="cls-3"/></g></g><path d="M295.04,735.13h13.28v-186.21s-2.11-19.74,21.11-19.74h99.83s20.68-1.18,20.68,16.68v189.28h17.02v-205.96s.35-20.09-17.02-20.09h-141.62s-13.28-.41-13.28,20.09v205.96Z" class="cls-2"/><path d="M305.66,410.98h20.68v30.06c0,3.83-3.11,6.94-6.94,6.94h-6.81c-3.83,0-6.94-3.11-6.94-6.94v-30.06h0Z" class="cls-3"/><path d="M433.83,410.98h20.68v30.06c0,3.83-3.11,6.94-6.94,6.94h-6.81c-3.83,0-6.94-3.11-6.94-6.94v-30.06h0Z" class="cls-3"/><rect width="67.4" height="16.32" x="39.32" y="672.79" class="cls-3" rx="4.24" ry="4.24"/><rect width="52.25" height="35.53" x="647.62" y="586.57" class="cls-3" rx="8.55" ry="8.55"/><rect width="43.7" height="15.32" x="656.17" y="709.26" class="cls-3" rx="3.57" ry="3.57"/></svg>